<svg xmlns="http://www.w3.org/2000/svg" width="1000" height="440" viewBox="0 0 1000 440" role="img" aria-labelledby="title desc">
<title id="title">Raju Bandam — developer workspace</title>
<desc id="desc">A terminal window displaying the included profile.toml and projects.txt files. Raju Bandam, rajureddi, AI, Android and edge systems developer in India, focused on on-device intelligence.</desc>
<style>.cursor{animation:blink 1.5s step-end infinite}@keyframes blink{0%,60%{opacity:1}61%,100%{opacity:0}}@media(prefers-reduced-motion:reduce){.cursor{animation:none}}</style>
<rect x="1" y="1" width="998" height="438" rx="8" fill="#0D120E" stroke="#526354" stroke-width="2"/>
<path d="M9 2H991Q998 2 998 9V43H2V9Q2 2 9 2Z" fill="#212A23"/>
<g font-family="Consolas,Menlo,DejaVu Sans Mono,monospace">
<text x="16" y="28" font-size="17" fill="#ACC9A4" >&gt;_</text>
<text x="50" y="27" font-size="14" fill="#AEBBAF" >raju@edge: ~/profile</text>
<g stroke="#9DAD9F" stroke-width="1.3" fill="none"><path d="M917 25H927"/><rect x="945" y="18" width="9" height="9"/><path d="M974 18L983 27M983 18L974 27"/></g>
<path d="M2 43H998M2 82H998" stroke="#344238"/>
<path d="M14 82V53H197V82" fill="#18251B" stroke="#455F47"/>
<text x="28" y="72" font-size="15" fill="#B9D9AC" >profile.toml</text>
<text x="229" y="72" font-size="15" fill="#849987" >projects.txt</text>
<text x="28" y="122" font-size="16" fill="#ACC9A4" >raju@edge:~/profile</text>
<text x="28" y="157" font-size="21" fill="#C8D8CA" >$ cat profile.toml</text>
<path d="M662 100V388" stroke="#344238"/>
<text x="28" y="210" font-size="21" fill="#819D86" >name = </text>
<text x="116.2" y="210" font-size="21" fill="#D4DFD5" >&quot;Raju Bandam&quot;</text>
<text x="28" y="243" font-size="21" fill="#819D86" >handle = </text>
<text x="141.39999999999998" y="243" font-size="21" fill="#D4DFD5" >&quot;rajureddi&quot;</text>
<text x="28" y="276" font-size="21" fill="#819D86" >role = </text>
<text x="116.2" y="276" font-size="21" fill="#D4DFD5" >&quot;AI / Android / Edge&quot;</text>
<text x="28" y="309" font-size="21" fill="#819D86" >location = </text>
<text x="166.6" y="309" font-size="21" fill="#D4DFD5" >&quot;India&quot;</text>
<text x="28" y="342" font-size="21" fill="#819D86" >focus = </text>
<text x="128.8" y="342" font-size="21" fill="#D4DFD5" >&quot;on-device intelligence&quot;</text>
<text x="690" y="122" font-size="12" fill="#819D86" letter-spacing="2">PROJECTS</text>
<text x="690" y="157" font-size="18" fill="#ACC9A4" >$ cat projects.txt</text>
<text x="690" y="207" font-size="19" fill="#CCD7CD" >LocalMind</text>
<text x="690" y="241" font-size="19" fill="#CCD7CD" >Vision navigation</text>
<text x="690" y="275" font-size="19" fill="#CCD7CD" >Traffic control</text>
<text x="690" y="309" font-size="19" fill="#CCD7CD" >TurantPay</text>
<text x="690" y="365" font-size="20" fill="#ACC9A4" >$</text>
<rect class="cursor" x="715" y="347" width="11" height="22" fill="#9BBE95"/>
<path d="M2 402H998" stroke="#344238"/>
<path d="M2 403H196V438H9Q2 438 2 431Z" fill="#A8C39D"/>
<text x="18" y="426" font-size="15" fill="#152217" >[raju / profile]</text>
<text x="223" y="426" font-size="14" fill="#A3B2A5" >0:identity*   1:projects</text>
<text x="822" y="426" font-size="14" fill="#8FA292" >utf-8 / text</text>
</g></svg>