<svg xmlns="http://www.w3.org/2000/svg" width="440" height="528" viewBox="0 0 440 528" role="img" aria-labelledby="title desc">
<title id="title">Raju Bandam — developer workspace</title>
<desc id="desc">A terminal window displaying the included profile.toml and projects.txt files. Raju Bandam, rajureddi, AI, Android and edge systems developer in India, focused on on-device intelligence.</desc>
<style>.cursor{animation:blink 1.5s step-end infinite}@keyframes blink{0%,60%{opacity:1}61%,100%{opacity:0}}@media(prefers-reduced-motion:reduce){.cursor{animation:none}}</style>
<rect x="1" y="1" width="438" height="526" rx="8" fill="#0D120E" stroke="#526354" stroke-width="2"/>
<path d="M9 2H431Q438 2 438 9V43H2V9Q2 2 9 2Z" fill="#212A23"/>
<g font-family="Consolas,Menlo,DejaVu Sans Mono,monospace">
<text x="16" y="28" font-size="17" fill="#ACC9A4" >&gt;_</text>
<text x="50" y="27" font-size="14" fill="#AEBBAF" >raju@edge: ~/profile</text>
<g stroke="#9DAD9F" stroke-width="1.3" fill="none"><path d="M357 25H367"/><rect x="385" y="18" width="9" height="9"/><path d="M414 18L423 27M423 18L414 27"/></g>
<path d="M2 43H438M2 82H438" stroke="#344238"/>
<path d="M14 82V53H197V82" fill="#18251B" stroke="#455F47"/>
<text x="28" y="72" font-size="15" fill="#B9D9AC" >profile.toml</text>
<text x="229" y="72" font-size="15" fill="#849987" >projects.txt</text>
<text x="20" y="119" font-size="15" fill="#ACC9A4" >raju@edge:~/profile</text>
<text x="20" y="147" font-size="18" fill="#C8D8CA" >$ cat profile.toml</text>
<text x="20" y="184" font-size="17" fill="#819D86" >name = </text>
<text x="91.39999999999999" y="184" font-size="17" fill="#D4DFD5" >&quot;Raju Bandam&quot;</text>
<text x="20" y="215" font-size="17" fill="#819D86" >handle = </text>
<text x="111.8" y="215" font-size="17" fill="#D4DFD5" >&quot;rajureddi&quot;</text>
<text x="20" y="246" font-size="17" fill="#819D86" >role = </text>
<text x="91.39999999999999" y="246" font-size="17" fill="#D4DFD5" >&quot;AI / Android / Edge&quot;</text>
<text x="20" y="277" font-size="17" fill="#819D86" >location = </text>
<text x="132.2" y="277" font-size="17" fill="#D4DFD5" >&quot;India&quot;</text>
<text x="20" y="308" font-size="17" fill="#819D86" >focus = </text>
<text x="101.6" y="308" font-size="17" fill="#D4DFD5" >&quot;on-device intelligence&quot;</text>
<path d="M20 340H420" stroke="#344238"/>
<text x="20" y="369" font-size="17" fill="#ACC9A4" >$ cat projects.txt</text>
<text x="20" y="395" font-size="17" fill="#CCD7CD" >LocalMind</text>
<text x="20" y="420" font-size="17" fill="#CCD7CD" >Vision navigation</text>
<text x="20" y="445" font-size="17" fill="#CCD7CD" >Traffic control</text>
<text x="20" y="470" font-size="17" fill="#CCD7CD" >TurantPay</text>
<path d="M2 500H438" stroke="#344238"/>
<text x="18" y="519" font-size="12" fill="#9BBE95" >~/profile</text>
<text x="262" y="519" font-size="12" fill="#91A293" >utf-8 / text</text>
</g></svg>